<?xml version="1.0" ?><svg enable-background="new 0 0 32 32" height="32px" id="svg2" version="1.1" viewBox="0 0 32 32" width="32px" xml:space="preserve" xmlns="http://www.w3.org/2000/svg" xmlns:cc="http://creativecommons.org/ns#" xmlns:dc="http://purl.org/dc/elements/1.1/" xmlns:inkscape="http://www.inkscape.org/namespaces/inkscape" xmlns:rdf="http://www.w3.org/1999/02/22-rdf-syntax-ns#" xmlns:sodipodi="http://sodipodi.sourceforge.net/DTD/sodipodi-0.dtd" xmlns:svg="http://www.w3.org/2000/svg"><g id="background"><rect fill="none" height="32" width="32"/></g><g id="user_x5F_half"><g><path d="M22,10c-1,0-12,0-12,0s-2,0-2,2v14c0,2,2,2,2,2v4h12v-4c0,0,2,0,2-2s0-14,0-14S24,10,22,10z M16,8c2.209,0,4-1.791,4-4    s-1.791-4-4-4s-4,1.791-4,4S13.791,8,16,8z"/></g></g></svg>