<?xml version="1.0" ?><svg data-name="Layer 1" id="Layer_1" viewBox="0 0 100 100" xmlns="http://www.w3.org/2000/svg"><title/><g><path d="M93.58887,74.57324L56.0625,9.5752a6.99922,6.99922,0,0,0-12.124-.001L6.41113,74.57324c-1.748,3.02539-.94238,10.82129,1.56543,15.167,2.10254,3.6416,4.87012,4.18555,6.333,4.18555H85.69043c1.46289,0,4.23047-.54395,6.333-4.18555C94.53125,85.39453,95.33691,77.59863,93.58887,74.57324Zm-44.4541-62a1,1,0,0,1,1.73145.001L88.34869,77.49548a3.067,3.067,0,0,1,.13873.69641,2.33649,2.33649,0,0,1-2.34583,2.27H13.8584a2.33649,2.33649,0,0,1-2.34583-2.27,3.067,3.067,0,0,1,.13873-0.69641ZM85.69043,87.92578H14.30957a1.67442,1.67442,0,0,1-.89844-0.80566,11.56488,11.56488,0,0,1-1.5188-4.03052,5.38668,5.38668,0,0,0,1.96606.37231H86.1416a5.38668,5.38668,0,0,0,1.96606-.37231,11.56488,11.56488,0,0,1-1.5188,4.03052A1.67442,1.67442,0,0,1,85.69043,87.92578Z" fill="#4d4d4d"/><circle cx="49.82901" cy="34.87733" fill="#4d4d4d" r="0.0019" transform="translate(13.59396 83.72792) rotate(-88.42345)"/><path d="M49.8205,55.13458h0.011A10.12,10.12,0,1,0,49.8205,55.13458Z" fill="#4d4d4d"/><path d="M36.54474,73.44531c1.33887,2.0144,25.22809,2.0144,26.56647,0,1.45093-2.1897,1.62384-4.41235,1.69214-6.9635,0.03784-1.35913.03827-2.71222-.05634-4.07123a8.98935,8.98935,0,0,0-.37463-1.9541,6.168,6.168,0,0,0-3.668-3.87421,12.421,12.421,0,0,0-1.52325-.55438,13.09557,13.09557,0,0,0-1.877-.39911c-0.00909-.00244-0.4082-0.01978-1.01929-0.053a10.3573,10.3573,0,0,1-6.35956,2.28442c-0.033.00214-.06433,0-0.09851,0-0.03217,0-.06549.00214-0.09674,0a10.35061,10.35061,0,0,1-6.36133-2.28442c-0.60968.03351-1.00989,0.0506-1.0166,0.053a12.95851,12.95851,0,0,0-1.87878.39911,12.53762,12.53762,0,0,0-1.52484.55438A6.17381,6.17381,0,0,0,35.283,60.45648a8.97279,8.97279,0,0,0-.3764,1.9541c-0.094,1.359-.09271,2.7121-0.057,4.07123C34.91821,69.033,35.09088,71.25562,36.54474,73.44531Z" fill="#4d4d4d"/></g></svg>